<svg xmlns="http://www.w3.org/2000/svg" viewBox="0 0 512 512">
<defs>
  <linearGradient id="blue" x1="95" y1="110" x2="410" y2="300" gradientUnits="userSpaceOnUse">
    <stop offset="0" stop-color="#123fc4"/>
    <stop offset=".55" stop-color="#087fe8"/>
    <stop offset="1" stop-color="#19c9ee"/>
  </linearGradient>
  <linearGradient id="blueDark" x1="150" y1="130" x2="410" y2="420" gradientUnits="userSpaceOnUse">
    <stop offset="0" stop-color="#071d67"/>
    <stop offset=".6" stop-color="#0b3c92"/>
    <stop offset="1" stop-color="#123d8c"/>
  </linearGradient>
  <linearGradient id="green" x1="205" y1="175" x2="340" y2="360" gradientUnits="userSpaceOnUse">
    <stop offset="0" stop-color="#31e28d"/>
    <stop offset=".55" stop-color="#16d19e"/>
    <stop offset="1" stop-color="#00a9aa"/>
  </linearGradient>
</defs>
<!-- upper growth arc -->
<path fill="url(#blue)" d="M119 330c-26-42-30-94-14-142 24-72 89-121 165-126 58-4 113 17 153 58l-45 45c-28-28-65-43-103-40-48 3-88 34-104 79-12 33-9 68 8 96l-60 30Z"/>
<!-- inner dark arc -->
<path fill="url(#blueDark)" d="M154 328c-9-30-9-62 3-91 19-46 63-78 113-82 40-3 78 11 106 39l-42 43c-17-17-39-25-62-23-27 2-50 19-61 44-9 20-8 42 0 61l-57 9Z"/>
<!-- lower sweeping ribbon -->
<path fill="url(#blueDark)" d="M113 351c59-10 121-31 178-63 45-25 86-57 119-94l47 46c-39 49-88 91-144 122-62 35-129 58-188 63l-30-35c-5-10 5-34 18-39Z"/>
<!-- teal foreground sweep -->
<path fill="url(#green)" d="M116 359c75-17 151-52 216-100 38-28 70-59 97-93l26 21c-29 43-65 82-108 114-66 49-143 86-220 105-21 5-42-2-54-19l-10-15c14-6 34-10 53-13Z"/>
<!-- rising bars -->
<g fill="url(#green)">
  <rect x="164" y="286" width="43" height="70" rx="13" transform="rotate(-8 164 286)"/>
  <rect x="216" y="235" width="45" height="121" rx="13" transform="rotate(-8 216 235)"/>
  <rect x="270" y="177" width="47" height="179" rx="13" transform="rotate(-8 270 177)"/>
</g>
<!-- rising arrow -->
<path fill="url(#green)" d="M291 318c34-25 66-53 94-84l-18-12 52-30 5 59-19-12c-30 37-66 70-106 99l-8-20Z"/>
</svg>